<svg width="36" height="55" viewBox="0 0 36 55" fill="none" xmlns="http://www.w3.org/2000/svg">
<path d="M36 37C36 46.9411 27.9411 55 18 55C8.05887 55 0 46.9411 0 37C0 27.0589 9.5 11.5 18 0C27 12.5 36 27.0589 36 37Z" fill="#FFE417"/>
<path d="M32.5 33.4999C33.5 41 28.26 49.3759 20 51C11.74 52.624 3.5 46.7326 3.5 38.9999C3.5 31.2673 12.5 40.9292 18 37C21.5 34.4995 31.6909 27.4314 32.5 33.4999Z" fill="#FF7817"/>
<circle cx="5.5" cy="37" r="2.5" fill="white"/>
<path d="M10.2249 28.2436C9.67011 29.2567 8.47504 30.6539 7.09621 30.5805C6.09757 30.5273 4.6265 29.9483 5.23199 27.9777C5.83748 26.0071 13.8775 8.91049 15.2563 8.98392C16.6352 9.05736 10.7798 27.2305 10.2249 28.2436Z" fill="white"/>
</svg>
